<svg id="color" enable-background="new 0 0 24 24" height="512" viewBox="0 0 24 24" width="512" xmlns="http://www.w3.org/2000/svg"><path d="m22.25 9.75h-1c-.414 0-.75.336-.75.75v7c0 .414.336.75.75.75h1c.965 0 1.75-.785 1.75-1.75v-5c0-.965-.785-1.75-1.75-1.75z" fill="#546e7a"/><path d="m2.75 9.75h-1c-.965 0-1.75.785-1.75 1.75v5c0 .965.785 1.75 1.75 1.75h1c.414 0 .75-.336.75-.75v-7c0-.414-.336-.75-.75-.75z" fill="#546e7a"/><path d="m24 14h-3.5v3.5c0 .414.336.75.75.75h1c.965 0 1.75-.785 1.75-1.75z" fill="#49606a"/><path d="m3.5 14h-3.5v2.5c0 .965.785 1.75 1.75 1.75h1c.414 0 .75-.336.75-.75z" fill="#49606a"/><path d="m12 0c-.414 0-.75.336-.75.75v2.031c0 .414.336.75.75.75s.75-.336.75-.75v-2.031c0-.414-.336-.75-.75-.75z" fill="#78909c"/><path d="m16.271 2.031h-8.792c-.965 0-1.75.785-1.75 1.75v1.719c0 .414.336.75.75.75h10.791c.414 0 .75-.336.75-.75v-1.719c.001-.965-.785-1.75-1.749-1.75z" fill="#546e7a"/><path d="m19.25 4.75h-14.5c-1.517 0-2.75 1.233-2.75 2.75v13.75c0 1.517 1.233 2.75 2.75 2.75h14.5c1.517 0 2.75-1.233 2.75-2.75v-13.75c0-1.517-1.233-2.75-2.75-2.75z" fill="#78909c"/><path d="m17.005 16h-10.005c-1.517 0-2.75 1.233-2.75 2.75s1.233 2.75 2.75 2.75h10.005c1.517 0 2.75-1.233 2.75-2.75s-1.234-2.75-2.75-2.75z" fill="#fff"/><path d="m12 0c-.414 0-.75.336-.75.75v1.281h.75z" fill="#687d88"/><path d="m12 2.031h-.75-3.771c-.965 0-1.75.785-1.75 1.75v.969h6.271z" fill="#49606a"/><path d="m12 4.75h-6.271-.979c-1.517 0-2.75 1.233-2.75 2.75v13.75c0 1.517 1.233 2.75 2.75 2.75h7.25v-2.5h-5c-1.517 0-2.75-1.233-2.75-2.75s1.233-2.75 2.75-2.75h5z" fill="#687d88"/><path d="m12 16h-5c-1.517 0-2.75 1.233-2.75 2.75s1.233 2.75 2.75 2.75h5z" fill="#dedede"/><path d="m16.979 13c-1.103 0-2-.897-2-2s.897-2 2-2 2 .897 2 2-.897 2-2 2z" fill="#fff"/><path d="m6.98 13c-1.103 0-2-.897-2-2s.897-2 2-2c1.102 0 2 .897 2 2-.001 1.104-.898 2-2 2z" fill="#fff"/><g fill="#dedede"><path d="m6.98 9c-1.103 0-2 .897-2 2 0 1.104.897 2 2 2h.02v-4c-.007 0-.014 0-.02 0z"/><path d="m16.98 9c-1.103 0-2 .897-2 2 0 1.104.897 2 2 2h.02v-4c-.007 0-.014 0-.02 0z"/></g></svg>