<svg width="60" height="60" xmlns="http://www.w3.org/2000/svg">

 <g>
  <title>background</title>
  <rect fill="none" id="canvas_background" height="402" width="582" y="-1" x="-1"/>
 </g>
 <g>
  <title>Layer 1</title>
  <path fill-rule="evenodd" fill="#ffffff" id="comment" d="m30,-0.008006c-16.568,0 -30,11 -30,24.566c0,7.237 3.824,13.741 9.906,18.236a2.958,2.958 0 0 1 1.059,1.948a20.612,20.612 0 0 1 -0.531,6.341c-1.311,5.109 -2.427,5.557 -2.434,6.909c0.016,2.252 2.19,2 2.5,2c5.055,0.04 12.383,-9.58 13.3,-10.49a5.008,5.008 0 0 1 0.847,-0.546c0.983,-0.37 4.2,0.164 5.358,0.166c16.568,0 30,-11 30,-24.564s-13.437,-24.566 -30.005,-24.566z" class="cls-1"/>
 </g>
</svg>